<svg width="40" height="40" viewBox="0 0 40 40" fill="none" xmlns="http://www.w3.org/2000/svg">
<path d="M31.0987 3.59877C31.4432 3.23463 31.8571 2.94323 32.3161 2.7418C32.7751 2.54037 33.2698 2.43299 33.771 2.42602C34.2721 2.41905 34.7696 2.51263 35.234 2.70122C35.6984 2.88981 36.1203 3.16958 36.4748 3.52401C36.8292 3.87843 37.109 4.30032 37.2976 4.76472C37.4861 5.22912 37.5797 5.72662 37.5727 6.2278C37.5658 6.72899 37.4584 7.22369 37.257 7.68267C37.0555 8.14165 36.7641 8.55559 36.4 8.90002L25.4125 19.8875C25.3979 19.902 25.3864 19.9193 25.3785 19.9383C25.3706 19.9572 25.3666 19.9776 25.3666 19.9981C25.3666 20.0187 25.3706 20.039 25.3785 20.058C25.3864 20.077 25.3979 20.0943 25.4125 20.1088L36.4 31.0963C36.7529 31.4434 37.0336 31.857 37.2259 32.3131C37.4182 32.7693 37.5182 33.259 37.5203 33.754C37.5224 34.2491 37.4264 34.7396 37.238 35.1973C37.0495 35.6551 36.7723 36.071 36.4223 36.4211C36.0723 36.7712 35.6565 37.0485 35.1988 37.237C34.741 37.4256 34.2505 37.5217 33.7555 37.5197C33.2605 37.5178 32.7708 37.4178 32.3146 37.2256C31.8584 37.0335 31.4447 36.7529 31.0975 36.4L20.11 25.4125C20.0955 25.398 20.0782 25.3864 20.0593 25.3786C20.0403 25.3707 20.0199 25.3666 19.9994 25.3666C19.9788 25.3666 19.9585 25.3707 19.9395 25.3786C19.9205 25.3864 19.9033 25.398 19.8887 25.4125L8.90125 36.4C8.55411 36.7529 8.14054 37.0336 7.68438 37.2259C7.22823 37.4182 6.73852 37.5183 6.24349 37.5203C5.74847 37.5224 5.25794 37.4265 4.80018 37.238C4.34243 37.0495 3.92652 36.7723 3.57645 36.4223C3.22637 36.0723 2.94905 35.6565 2.76049 35.1988C2.57193 34.7411 2.47586 34.2506 2.47781 33.7555C2.47977 33.2605 2.57972 32.7708 2.77189 32.3146C2.96407 31.8584 3.24466 31.4447 3.5975 31.0975L14.585 20.11C14.5995 20.0955 14.6111 20.0783 14.619 20.0593C14.6268 20.0403 14.6309 20.02 14.6309 19.9994C14.6309 19.9788 14.6268 19.9585 14.619 19.9395C14.6111 19.9205 14.5995 19.9033 14.585 19.8888L3.5975 8.90127C2.90361 8.19616 2.51646 7.24542 2.52037 6.25616C2.52428 5.2669 2.91894 4.31925 3.61838 3.61965C4.31782 2.92004 5.26537 2.52516 6.25463 2.52102C7.2439 2.51687 8.19472 2.9038 8.9 3.59752L19.8875 14.585C19.902 14.5996 19.9193 14.6111 19.9382 14.619C19.9572 14.6269 19.9776 14.6309 19.9981 14.6309C20.0187 14.6309 20.039 14.6269 20.058 14.619C20.077 14.6111 20.0942 14.5996 20.1087 14.585L31.0962 3.59752L31.0987 3.59877Z" fill="#472214"/>
</svg>
