<svg width="85" height="31" viewBox="0 0 85 31" fill="none" xmlns="http://www.w3.org/2000/svg">
<g clip-path="url(#clip0_48_35)">
<path fill-rule="evenodd" clip-rule="evenodd" d="M35.0011 22.7233H34.9633C34.9803 22.7233 34.9917 22.7422 35.0087 22.7441H35.02L35.0011 22.7252V22.7233ZM35.0087 22.7441C34.833 22.746 34.391 22.8386 33.9244 22.8386C32.4511 22.8386 31.9411 22.1586 31.9411 21.2708V15.3567H34.9444C35.1144 15.3567 35.2467 15.2056 35.2467 14.9978V11.7867C35.2467 11.6167 35.0956 11.4656 34.9444 11.4656H31.9411V7.48C31.9411 7.32889 31.8467 7.23445 31.6767 7.23445H27.5967C27.4267 7.23445 27.3322 7.32889 27.3322 7.48V11.5789C27.3322 11.5789 25.2733 12.0889 25.1411 12.1078C24.99 12.1456 24.8956 12.2778 24.8956 12.4289V14.9978C24.8956 15.2056 25.0467 15.3567 25.2167 15.3567H27.3133V21.5522C27.3133 26.1611 30.5244 26.6333 32.7156 26.6333C33.7167 26.6333 34.9256 26.3122 35.1144 26.2178C35.2278 26.18 35.2844 26.0478 35.2844 25.9156V23.0822C35.287 23.0019 35.2606 22.9233 35.2099 22.8608C35.1593 22.7984 35.0878 22.7563 35.0087 22.7422V22.7441ZM79.7678 18.5867C79.7678 15.1678 78.3889 14.7144 76.9344 14.8656C75.8011 14.9411 74.8944 15.5078 74.8944 15.5078V22.1567C74.8944 22.1567 75.82 22.7989 77.1989 22.8367C79.1444 22.8933 79.7678 22.1944 79.7678 18.5867ZM84.3578 18.2844C84.3578 24.7633 82.2611 26.6144 78.5967 26.6144C75.4989 26.6144 73.8367 25.0467 73.8367 25.0467C73.8367 25.0467 73.7611 25.9156 73.6667 26.0289C73.61 26.1422 73.5156 26.18 73.4022 26.18H70.6067C70.4178 26.18 70.2478 26.0289 70.2478 25.8589L70.2856 4.87334C70.2856 4.70334 70.4367 4.55223 70.6067 4.55223H74.63C74.8 4.55223 74.9511 4.70334 74.9511 4.87334V11.9944C74.9511 11.9944 76.5 10.9933 78.7667 10.9933L78.7478 10.9556C81.0144 10.9556 84.3578 11.8056 84.3578 18.2844V18.2844ZM67.8867 11.4656H63.92C63.7122 11.4656 63.5989 11.6167 63.5989 11.8244V22.1C63.5989 22.1 62.56 22.8367 61.1433 22.8367C59.7267 22.8367 59.3111 22.1944 59.3111 20.7778V11.8056C59.3111 11.6356 59.16 11.4844 58.99 11.4844H54.9478C54.7778 11.4844 54.6267 11.6356 54.6267 11.8056V21.4578C54.6267 25.6133 56.95 26.6522 60.1422 26.6522C62.7678 26.6522 64.9022 25.1978 64.9022 25.1978C64.9022 25.1978 64.9967 25.9344 65.0533 26.0478C65.0911 26.1422 65.2233 26.2178 65.3556 26.2178H67.8867C68.0944 26.2178 68.2078 26.0667 68.2078 25.8967L68.2456 11.7867C68.2456 11.6167 68.0944 11.4656 67.8867 11.4656V11.4656ZM23.12 11.4467H19.0967C18.9267 11.4467 18.7756 11.6167 18.7756 11.8244V25.6889C18.7756 26.0667 19.0211 26.1989 19.3422 26.1989H22.9689C23.3467 26.1989 23.4411 26.0289 23.4411 25.6889V11.7678C23.4411 11.5978 23.29 11.4467 23.12 11.4467V11.4467ZM21.1367 5.06223C19.6822 5.06223 18.53 6.21445 18.53 7.66889C18.53 9.12334 19.6822 10.2756 21.1367 10.2756C22.5533 10.2756 23.7056 9.12334 23.7056 7.66889C23.7056 6.21445 22.5533 5.06223 21.1367 5.06223ZM52.2844 4.59H48.2989C48.1289 4.59 47.9778 4.74111 47.9778 4.91111V12.6367H41.7256V4.91111C41.7256 4.74111 41.5744 4.59 41.4044 4.59H37.3811C37.2111 4.59 37.06 4.74111 37.06 4.91111V25.8967C37.06 26.0667 37.23 26.2178 37.3811 26.2178H41.4044C41.5744 26.2178 41.7256 26.0667 41.7256 25.8967V16.9244H47.9778L47.94 25.8967C47.94 26.0667 48.0911 26.2178 48.2611 26.2178H52.2844C52.4544 26.2178 52.6056 26.0667 52.6056 25.8967V4.91111C52.6056 4.74111 52.4544 4.59 52.2844 4.59V4.59ZM16.6411 13.8833V24.7256C16.6411 24.8011 16.6222 24.9333 16.5278 24.9711C16.5278 24.9711 14.1667 26.6522 10.2756 26.6522C5.57222 26.6522 0 25.1789 0 15.47C0 5.76111 4.87333 3.75889 9.63333 3.77778C13.7511 3.77778 15.4133 4.70334 15.6778 4.87334C15.7533 4.96778 15.7911 5.04334 15.7911 5.13778L14.9978 8.5C14.9978 8.67 14.8278 8.87778 14.62 8.82111C13.94 8.61334 12.92 8.19778 10.5211 8.19778C7.74444 8.19778 4.76 8.99111 4.76 15.2433C4.76 21.4956 7.59333 22.2322 9.63333 22.2322C11.3711 22.2322 11.9944 22.0244 11.9944 22.0244V17.68H9.21778C9.01 17.68 8.85889 17.5289 8.85889 17.3589V13.8833C8.85889 13.7133 9.01 13.5622 9.21778 13.5622H16.2822C16.49 13.5622 16.6411 13.7133 16.6411 13.8833Z" fill="#F9F3EE"/>
</g>
<defs>
<clipPath id="clip0_48_35">
<rect width="85" height="30.2222" fill="white"/>
</clipPath>
</defs>
</svg>
