<svg width="60" height="60" viewBox="0 0 60 60" fill="none" xmlns="http://www.w3.org/2000/svg">
<path d="M50.3 16.775L43.225 9.7C41.8198 8.29308 39.9135 7.50175 37.925 7.5H22.075C20.0865 7.50175 18.1802 8.29308 16.775 9.7L9.7 16.775C8.29308 18.1802 7.50175 20.0865 7.5 22.075V45C7.5 46.9891 8.29018 48.8968 9.6967 50.3033C11.1032 51.7098 13.0109 52.5 15 52.5H45C46.9891 52.5 48.8968 51.7098 50.3033 50.3033C51.7098 48.8968 52.5 46.9891 52.5 45V22.075C52.4982 20.0865 51.7069 18.1802 50.3 16.775ZM20.3 13.225C20.7791 12.7682 21.4131 12.5092 22.075 12.5H37.925C38.5869 12.5092 39.2209 12.7682 39.7 13.225L43.975 17.5H16.025L20.3 13.225ZM45 47.5H15C14.337 47.5 13.7011 47.2366 13.2322 46.7678C12.7634 46.2989 12.5 45.663 12.5 45V22.5H47.5V45C47.5 45.663 47.2366 46.2989 46.7678 46.7678C46.2989 47.2366 45.663 47.5 45 47.5Z" fill="#472214"/>
<path d="M37.5 27.5C36.837 27.5 36.2011 27.7634 35.7322 28.2322C35.2634 28.7011 35 29.337 35 30C35 31.3261 34.4732 32.5979 33.5355 33.5355C32.5979 34.4732 31.3261 35 30 35C28.6739 35 27.4021 34.4732 26.4645 33.5355C25.5268 32.5979 25 31.3261 25 30C25 29.337 24.7366 28.7011 24.2678 28.2322C23.7989 27.7634 23.163 27.5 22.5 27.5C21.837 27.5 21.2011 27.7634 20.7322 28.2322C20.2634 28.7011 20 29.337 20 30C20 32.6522 21.0536 35.1957 22.9289 37.0711C24.8043 38.9464 27.3478 40 30 40C32.6522 40 35.1957 38.9464 37.0711 37.0711C38.9464 35.1957 40 32.6522 40 30C40 29.337 39.7366 28.7011 39.2678 28.2322C38.7989 27.7634 38.163 27.5 37.5 27.5Z" fill="#472214"/>
</svg>
